<svg xmlns="http://www.w3.org/2000/svg" width="113.441" height="56.327" viewBox="0 0 113.441 56.327"><path d="M1640.723,1094.258c0-5.38.021-10.761-.019-16.142-.008-.968.136-1.336,1.264-1.328,7.985.055,15.97.033,23.955-.016.84-.005.96.3.946.994-.031,1.507-.06,3.019.022,4.522.048.875-.3,1.008-1.059,1-5.825-.025-11.651,0-17.477-.033-.835,0-1.144.2-1.115,1.077.062,1.849.053,3.7,0,5.551-.025.954.167,1.351,1.287,1.337,5.482-.073,10.966-.008,16.449-.056.975-.009,1.217.27,1.149,1.209a32.194,32.194,0,0,0-.008,3.9c.043.879-.286,1.111-1.13,1.106-5.517-.031-11.035.006-16.553-.039-.9-.007-1.172.218-1.143,1.132.062,1.916.032,3.837-.036,5.753-.029.8.251.958.995.955,5.86-.03,11.721,0,17.581-.037.791,0,1.082.172,1.044,1.013-.069,1.538-.051,3.084-.005,4.624.021.682-.108.953-.885.951q-12.132-.045-24.264,0c-.827,0-1.018-.243-1.013-1.033.033-5.484.017-10.967.017-16.45Z" transform="translate(-1606.119 -1072.79)" fill="#f8bc19"/><path d="M1605.734,1075.119a16.092,16.092,0,0,1,9.384,3.009,10.958,10.958,0,0,1,2.748,3.154c.3.5.359.8-.271,1.106-1.355.653-2.678,1.377-4,2.094-.412.223-.646.14-.944-.22-3.1-3.749-9.2-4.1-12.558-2.48-2.16,1.039-3.115,3.354-2.149,5.168a4.231,4.231,0,0,0,2.484,1.872,21.276,21.276,0,0,0,4.911,1.012,32.766,32.766,0,0,1,7.655,1.729,9.427,9.427,0,0,1,6.333,10.258c-.451,4.773-3.228,7.977-8.314,9.381a23.661,23.661,0,0,1-13.767-.255,12.342,12.342,0,0,1-7.337-6.495c-.373-.729-.273-1.128.52-1.486,1.34-.6,2.625-1.328,3.93-2.01.351-.183.641-.373.9.157a8.833,8.833,0,0,0,7.086,4.81,12.184,12.184,0,0,0,8.007-.987,4.357,4.357,0,0,0,2.457-3.978,3.954,3.954,0,0,0-2.493-3.693,16.433,16.433,0,0,0-5.81-1.486,24.1,24.1,0,0,1-8.5-2.178,8.516,8.516,0,0,1-4.941-7.914,8.778,8.778,0,0,1,4.63-8.341A18.342,18.342,0,0,1,1605.734,1075.119Z" transform="translate(-1589.698 -1072.256)" fill="#587fbf"/><g transform="translate(58.939)"><path d="M1742.4,1071.53c-.206,1.974-.371,3.949-.536,5.924a6.947,6.947,0,0,1-.165.905h-.246c-1.81-.987-1.81-.987-2.839.617-.453.7-.905,1.4-1.317,2.1-1.193,1.851-2.385,3.7-3.537,5.513-1.645,2.633-3.332,5.265-4.977,7.857-.453.741-.824.988-1.728.494-2.221-1.193-4.649-1.974-6.829-3.208a.842.842,0,0,0-1.275.288c-1.974,2.674-3.99,5.265-6.005,7.9-.124.124-.247.33-.37.33a8.8,8.8,0,0,1-.865-1.275c1.893-3.456,3.744-6.911,5.637-10.367.823-1.563.823-1.563,2.468-.658,2.057,1.111,4.279,1.851,6.376,2.879a.533.533,0,0,0,.823-.287c1.111-1.892,2.427-3.7,3.5-5.636.288-.494.577-.987.905-1.481.7-.987,1.4-1.933,2.016-2.962.411-.7.863-1.4,1.275-2.057.494-.7.987-1.4,1.44-2.1.493-.74.411-1.152-.412-1.563-.329-.165-.863-.288-.823-.658.041-.329.617-.37.947-.534,1.933-.823,3.866-1.646,5.8-2.509C1742.279,1070.79,1742.486,1070.831,1742.4,1071.53Z" transform="translate(-1687.919 -1070.899)" fill="#8bd0c1"/><path d="M1695.285,1128.716a23.335,23.335,0,0,0-2.519-2.979c-.257.083-.4.4-.8.15a2.128,2.128,0,0,0-2.848.56q-3.775,3.773-7.538,7.559-2.138,2.14-4.289,4.266c-.87.856-.894,1.474-.054,2.324,1.225,1.241,2.482,2.452,3.666,3.732.574.621.994.666,1.6.058q6.255-6.292,12.542-12.552a2,2,0,0,0,.428-2.358C1695.369,1129.234,1695.14,1129.019,1695.285,1128.716Z" transform="translate(-1676.621 -1088.493)" fill="gray"/><path d="M1737.578,1093.923a18.644,18.644,0,0,1-18.635,18.635,18.419,18.419,0,0,1-11.477-3.99,1.118,1.118,0,0,1-.247-.205l.247.247c-.288-.123-.576,0-.9.329-1.152,1.234-2.427,2.427-3.661,3.579a21.253,21.253,0,0,0-2.509-2.962c1.151-1.193,2.263-2.345,3.455-3.5.2-.247.329-.411.329-.617h.165a18.584,18.584,0,0,1,26.7-25.628c-.412.658-.864,1.357-1.275,2.057-.617,1.029-1.316,1.974-2.016,2.962a12.655,12.655,0,0,0-21.474,9.091,12.374,12.374,0,0,0,1.768,6.458,8.789,8.789,0,0,0,.865,1.275,12.643,12.643,0,0,0,22.666-7.734,12.511,12.511,0,0,0-1.481-5.923c1.152-1.811,2.345-3.662,3.537-5.513A18.51,18.51,0,0,1,1737.578,1093.923Z" transform="translate(-1684.247 -1072.312)" fill="#e54439"/></g></svg>