<svg xmlns="http://www.w3.org/2000/svg" width="58.568" height="60.513" viewBox="0 0 58.568 60.513"><path d="M1030.827,1061.482q4.721,0,9.443-.01,24.219,0,48.439-.013c.639,0,.727.181.671.753-.6,6.24-1.178,12.481-1.766,18.722q-.991,10.51-1.989,21.018c-.417,4.416-.833,8.831-1.225,13.249a.674.674,0,0,1-.6.718q-11.112,2.918-22.211,5.881a7.986,7.986,0,0,1-4.122-.285q-10.332-2.557-20.663-5.113a.785.785,0,0,1-.717-.84c-.452-4.843-.948-9.683-1.419-14.525-.434-4.459-.848-8.92-1.281-13.38q-.776-7.971-1.571-15.94c-.287-2.928-.563-5.856-.853-8.783-.021-.213.065-.458-.138-.635Zm28.167,10.323v0h-15.353c-.816,0-1.631.018-2.446-.008-.374-.012-.473.119-.423.47.067.47.1.944.149,1.416.622,6.078,1.251,12.154,1.852,18.232.047.48.2.578.647.579,3.623.006,7.246.043,10.869.059,4.415.02,8.83.027,13.246.05.262,0,.675-.193.62.4q-.354,3.888-.664,7.779a.608.608,0,0,1-.534.641c-2.412.6-4.819,1.217-7.225,1.84a1.663,1.663,0,0,1-.864,0q-3.646-.928-7.3-1.831a.588.588,0,0,1-.525-.633c-.11-1.465-.29-2.926-.418-4.391-.036-.417-.176-.561-.618-.555-2.151.024-4.3.017-6.454,0-.381,0-.515.091-.471.5q.5,4.759.963,9.522a.824.824,0,0,0,.722.851q7.031,1.774,14.05,3.6a1.87,1.87,0,0,0,1,0c4.626-1.244,9.252-2.491,13.889-3.695a.841.841,0,0,0,.734-.915c.088-1.264.211-2.526.329-3.787.482-5.136.956-10.273,1.466-15.407.067-.669-.1-.823-.766-.821-8.424.026-16.846.017-25.27.03-.451,0-.7-.054-.732-.591-.115-1.829-.267-3.656-.431-5.482-.041-.46.056-.623.561-.62,3.238.023,6.476.01,9.714.012q8.22,0,16.44.012c.372,0,.681.047.736-.513.194-2,.431-4,.692-6,.075-.571,0-.768-.656-.764C1070.678,1071.817,1064.836,1071.8,1058.994,1071.8Z" transform="translate(-1030.827 -1061.459)" fill="#e25127"/><path d="M1063.71,1076.709c5.842,0,11.684.012,17.526-.017.654,0,.73.193.656.764-.26,2-.5,4-.692,6-.054.559-.364.513-.736.513q-8.219-.009-16.439-.012c-3.238,0-6.476.011-9.714-.011-.5,0-.6.159-.561.62.164,1.826.316,3.653.431,5.482.033.537.281.592.732.591,8.424-.013,16.846,0,25.27-.03.666,0,.832.151.766.821-.51,5.134-.984,10.271-1.466,15.407-.118,1.261-.241,2.523-.329,3.787a.841.841,0,0,1-.734.915c-4.636,1.2-9.262,2.451-13.889,3.695a1.87,1.87,0,0,1-1,0q-7.021-1.814-14.05-3.6a.824.824,0,0,1-.722-.851q-.456-4.764-.963-9.522c-.043-.406.09-.5.471-.5,2.151.016,4.3.023,6.454,0,.442-.005.581.138.618.555.129,1.465.309,2.925.418,4.391a.588.588,0,0,0,.525.633q3.652.9,7.3,1.831a1.663,1.663,0,0,0,.865,0c2.406-.623,4.813-1.243,7.225-1.84a.608.608,0,0,0,.534-.641q.315-3.891.665-7.779c.054-.594-.359-.4-.62-.4-4.416-.022-8.831-.029-13.246-.049-3.623-.016-7.246-.053-10.869-.059-.446,0-.6-.1-.647-.579-.6-6.079-1.23-12.155-1.852-18.232-.048-.473-.082-.947-.148-1.417-.05-.351.049-.481.423-.47.814.026,1.63.008,2.446.008h15.353Z" transform="translate(-1035.543 -1066.363)" fill="#f5f6f7"/></svg>