<svg xmlns="http://www.w3.org/2000/svg" xmlns:xlink="http://www.w3.org/1999/xlink" width="1868.5" height="1133.795" viewBox="0 0 1868.5 1133.795"><defs><filter id="a" x="914.5" y="219.795" width="954" height="914" filterUnits="userSpaceOnUse"><feOffset input="SourceAlpha"/><feGaussianBlur stdDeviation="29.5" result="b"/><feFlood flood-color="#60e9ff" flood-opacity="0.271"/><feComposite operator="in" in2="b"/><feComposite in="SourceGraphic"/></filter><linearGradient id="c" x1="0.8" y1="-0.357" x2="0.8" y2="0.644" gradientUnits="objectBoundingBox"><stop offset="0" stop-color="gray" stop-opacity="0.251"/><stop offset="0.54" stop-color="gray" stop-opacity="0.122"/><stop offset="1" stop-color="gray" stop-opacity="0.102"/></linearGradient><clipPath id="d"><path d="M0-502H423.97v219.09H0Z" transform="translate(0 502)" fill="none"/></clipPath><clipPath id="e"><rect width="235.239" height="204.714" fill="none"/></clipPath><clipPath id="f"><path d="M443.84-502h-221a7.144,7.144,0,0,0-7.118,7.166v152.106a7.144,7.144,0,0,0,7.118,7.166h76.01v26.256h-3.465a3.622,3.622,0,0,0-3.609,3.635h0v5.268h7.075v3.116h68.983V-300.4h7.075v-5.268a3.622,3.622,0,0,0-3.609-3.635h-3.26v-.227h-.223v-26.029H443.84a7.144,7.144,0,0,0,7.118-7.166V-494.834A7.144,7.144,0,0,0,443.84-502" transform="translate(-215.72 502)" fill="none"/></clipPath><clipPath id="g"><rect width="28601.77" height="28601.77" fill="none"/></clipPath><linearGradient id="h" x1="0.066" y1="0.501" x2="1" y2="0.501" gradientUnits="objectBoundingBox"><stop offset="0" stop-color="#3f3f3f"/><stop offset="0.1" stop-color="#393939"/><stop offset="0.2" stop-color="#333"/><stop offset="0.3" stop-color="#2d2d2d"/><stop offset="0.4" stop-color="#272727"/><stop offset="0.5" stop-color="#212121"/><stop offset="0.6" stop-color="#1d1d1d"/><stop offset="0.7" stop-color="#1c1c1c"/><stop offset="0.8" stop-color="#1b1b1b"/><stop offset="0.9" stop-color="#1a1a1a"/><stop offset="1" stop-color="#191919"/></linearGradient><linearGradient id="i" x1="0.066" y1="0.501" x2="1" y2="0.501" gradientUnits="objectBoundingBox"><stop offset="0" stop-color="gray"/><stop offset="0.1" stop-color="gray"/><stop offset="0.2" stop-color="gray"/><stop offset="0.3" stop-color="gray"/><stop offset="0.4" stop-color="gray"/><stop offset="0.5" stop-color="gray"/><stop offset="0.6" stop-color="gray"/><stop offset="0.7" stop-color="gray"/><stop offset="0.8" stop-color="gray"/><stop offset="0.9" stop-color="gray"/><stop offset="1" stop-color="gray"/></linearGradient><clipPath id="k"><rect width="68.52" height="5.674" fill="none"/></clipPath><clipPath id="l"><rect width="144.024" height="81.945" fill="none"/></clipPath><clipPath id="m"><path d="M322.684-430.88h140.1a1.964,1.964,0,0,1,1.964,1.964V-350.9a1.964,1.964,0,0,1-1.964,1.964h-140.1a1.964,1.964,0,0,1-1.964-1.964v-78.017a1.964,1.964,0,0,1,1.964-1.964" transform="translate(-320.72 430.88)" fill="none"/></clipPath><linearGradient id="o" x1="0.484" y1="0.5" x2="0.858" y2="0.5" xlink:href="#h"/><linearGradient id="p" x1="0.484" y1="0.5" x2="0.858" y2="0.5" xlink:href="#i"/><clipPath id="q"><rect width="15.467" height="13.922" fill="none"/></clipPath><clipPath id="t"><rect width="68.084" height="1.309" fill="none"/></clipPath><clipPath id="u"><rect width="74.625" height="122.589" fill="none"/></clipPath><clipPath id="v"><path d="M54.155-271.554,88.2-242.889H56.6l.436-3.553c8.929-8.017,14.7-29.376,14.7-29.376a2.968,2.968,0,0,0-.38.079,22.186,22.186,0,0,0-11.57,5.8L60.9-279.4c16.5-3.553,23.039-25.374,23.039-25.374-10.527,2.335-17.091,5.949-21.167,9.379l1.624-13.887c11.155,3.828,22.695-16.506,22.695-16.506l-.436-.092.218-.14-.332.118c-12.329-2.658-18.919,4.391-21.058,7.319l.161-1.362q-.489,1.309-.951,2.566v.035q-1.309,3.548-2.4,7.009-.947,2.954-1.772,5.848v-.026A17.543,17.543,0,0,0,46.914-320.2s1.375,27.09,11.753,22.655c-.96,3.928-1.746,7.707-2.427,11.378q-.65,3.583-1.135,6.983l-.061.07.061-.052-.026.179q-.437,3.085-.742,6.014c.2-3.762-.484-14.629-13.289-24.842,0,0-17.021,29.913,12,35.788l.192.166L53.2-262l.262.057.118-1.536a161.174,161.174,0,0,0,.1,19.247c.031.436.061.873.092,1.287H21.81C9.616-217.72,28.584-203.9,28.584-203.9H80.956c20.338-25.636,7.24-38.991,7.24-38.991" transform="translate(-17.722 326.487)" fill="none"/></clipPath><linearGradient id="x" x1="0.018" y1="0.371" x2="0.194" y2="0.371" xlink:href="#h"/><linearGradient id="y" x1="0.018" y1="0.371" x2="0.194" y2="0.371" xlink:href="#i"/><clipPath id="z"><rect width="13.173" height="83.308" fill="none"/></clipPath><clipPath id="aa"><rect width="23.765" height="15.22" fill="none"/></clipPath><clipPath id="ab"><rect width="28.16" height="24.36" fill="none"/></clipPath><clipPath id="ac"><rect width="11.786" height="21.121" fill="none"/></clipPath><clipPath id="ad"><rect width="12.128" height="33.827" fill="none"/></clipPath><clipPath id="ae"><rect width="17.69" height="29.969" fill="none"/></clipPath><clipPath id="af"><rect width="68.606" height="40.152" fill="none"/></clipPath><clipPath id="ag"><rect width="388.039" height="1.96" fill="none"/></clipPath><clipPath id="ah"><rect width="42.753" height="75.7" fill="none"/></clipPath><clipPath id="ai"><path d="M859.745-148.6l.044-.065q.135-.21.266-.436l.048-.083q.126-.214.24-.436l.039-.074c.087-.17.17-.34.244-.519a10.437,10.437,0,0,0,.41-1.1l.044-.144c.039-.135.079-.271.113-.406l.044-.192c.029-.122.055-.246.079-.371a1.16,1.16,0,0,1,.039-.209c.013-.07.039-.244.057-.371a.964.964,0,0,1,.026-.214,2.324,2.324,0,0,0,.035-.4v-36.826h-6.045v-17.667h-7.419v17.667h-5.115v-25.374h-7.419v25.374h-2.789v-29h-7.419v29H818.72v36.05a10.786,10.786,0,0,0,10.911,10.649H850.58a10.993,10.993,0,0,0,8.833-4.391q.162-.231.332-.463" transform="translate(-818.72 219.45)" fill="none"/></clipPath><linearGradient id="ak" x1="0.843" y1="0.264" x2="0.944" y2="0.264" xlink:href="#h"/><linearGradient id="al" x1="0.843" y1="0.264" x2="0.944" y2="0.264" xlink:href="#i"/><clipPath id="am"><rect width="40.152" height="42.766" fill="none"/></clipPath></defs><g transform="translate(0 1.878)"><path d="M-46.637,1290.813s148.407-32.483,301.589,58.632,114.525,128.047,282.8,195.959,268.069,136.673,288.689,216.4-17.675,207.857-97.212,267.652S489.479,2109.384,254.952,2146.2c-135.79,21.315-300.357,136.969-300.357,136.969Z" transform="translate(46.637 -1239.583)" fill="rgba(12,191,174,0.18)"/><g transform="translate(394 -1142.583)"><text transform="translate(889 1348)" fill="#0abead" font-size="48" font-family="Poppins-Bold, Poppins" font-weight="700"><tspan x="0" y="0">About Me</tspan></text><path d="M878,1430h0Z" fill="none" stroke="#0abead" stroke-width="2"/><rect width="39" height="11" rx="5.5" transform="translate(982.5 1424)" fill="#0abead"/><text transform="translate(904 1390)" fill="#0abead" font-size="16" font-family="Poppins-Regular, Poppins" letter-spacing="0.25em"><tspan x="0" y="0">Why Choose Me?</tspan></text></g><g transform="matrix(1, 0, 0, 1, 0, -1.88)" filter="url(#a)"><rect width="777" height="737" transform="translate(1003 308.29)" fill="#fff"/></g><g transform="translate(101.718 198.604)"><ellipse cx="196.368" cy="13.962" rx="196.368" ry="13.962" transform="translate(38.282 639.655)" fill="#38d39f" opacity="0.1"/><path d="M361.177,600.279c2.7-4.864,5.945-9.458,8.557-14.322,2.342-4.5,4.234-9.278,6.4-13.872,3.693-7.927,8.2-15.4,12.341-23.15,2.7-5.044,5.314-10.539,4.774-16.3-.45-5.4-3.693-10.089-4.864-15.313-4.954-21.438-17.024-41.165-24.321-61.883-1.892-5.224-3.693-10.539-6.035-15.673-4.5-9.728-10.809-18.556-17.115-27.293a68.847,68.847,0,0,0-7.566-9.368c-2.252-2.252-4.774-4.234-6.846-6.666-4.234-5.044-6.215-12.341-11.53-16.214-.09.27-.18.45-.27.721-3.783-9.638-16.484-16.034-23.87-24.051a124.208,124.208,0,0,1-11.8-15.583l-16.034-23.24c-2.793-3.963-5.585-8.107-6.666-12.881-1.351-5.765-.09-11.89-1.441-17.655a22.46,22.46,0,0,0-4.954-9.368.688.688,0,0,0,.45-.18c3.063-.811,6.305-.991,9.368-1.711,6.666-1.621,12.341-5.855,19.006-7.476,3.333-.9,6.936-1.081,10-2.7a8.3,8.3,0,0,0,3.873-8.828c-2.162-11.26,3.873-22.789,2.792-34.229-.27-3.153-1.081-6.305-1.621-9.368-1.261-7.3-.991-14.773-.541-22.159a47.57,47.57,0,0,1,7.3-9.1c4.053-3.873,8.918-7.206,11.71-12.07a23.652,23.652,0,0,0,2.432-14.5c-.45-3.6-1.711-7.386-4.5-9.548s-6.936-2.342-10.359-1.171c-.45.18-.9.36-1.441.54a11.883,11.883,0,0,0-9.278-.54,28.383,28.383,0,0,0-9.1,5.765,20.12,20.12,0,0,0-4.234,4.5c-1.712,2.7-2.252,6.035-2.883,9.188a90.747,90.747,0,0,1-6.125,17.835c-.45.991-1.8,2.792-2.882,4.5l-1.982-.54c-.811,8.017-7.566,13.962-11.62,20.808-1.982,3.333-3.423,7.026-5.224,10.539a106.48,106.48,0,0,1-6.846,10.989c-2.432,3.6-4.864,7.206-7.3,10.719a161.065,161.065,0,0,1-9.908,13.421c-3.333-.27-6.576-.54-9.908-.54a84.351,84.351,0,0,0-16.484,1.441,31.221,31.221,0,0,1-.54-5.765v-.36c0-.45.09-.991.09-1.621a33.362,33.362,0,0,0,9.188-46.21,34,34,0,0,0-10.719-10.179c.18-.991.27-2.072.36-3.063v-1.8a3.065,3.065,0,0,0-.09-.9c-.09-.631-.18-1.171-.27-1.8-.09-.27-.18-.54-.27-.9a12.754,12.754,0,0,0-.721-1.621.088.088,0,0,0-.09-.09c-.09-.18-.27-.36-.36-.54s-.09-.18-.18-.18c-.09-.09-.18-.27-.27-.36l-.27-.27a1.243,1.243,0,0,1-.27-.36l-.27-.27-.36-.27-.27-.18-.36-.27-.36-.18-.36-.18c-.09-.09-.27-.09-.36-.18l-.36-.18-.36-.18-.36-.18-.36-.18-.36-.18-.45-.18-.27-.09-.45-.18-.27-.09-.54-.18-.27-.09-.54-.18-.18-.09-.541-.18h-.18l-.631-.18h-.09l-.991-.18c-3.963-.811-7.927-1.531-11.89-2.072-3.243-.45-6.666-.9-9.818-.18-4.414.991-8.2,3.963-12.341,5.855-4.954,2.252-10.359,2.792-15.583,4.053s-10.629,3.333-13.962,7.566c-2.522,3.243-3.513,7.476-4.234,11.53-6.215,33.869.45,68.729,1.711,103.138.54,13.421-.09,27.744-7.747,38.733l22.159-.541c1.081,0,2.162-.09,3.243-.09s2.162-.18,3.243-.27a21.229,21.229,0,0,0,8.017-2.432,13.439,13.439,0,0,0,3.153-2.432c2.973-3.063,4.594-7.476,6.125-11.62.54-1.351.991-2.792,1.441-4.234.18-.631.36-1.171.54-1.8l.09-.27.27.09a55.439,55.439,0,0,0,2.973,4.954c3.873,5.675,8.737,10.539,13.6,15.4,9.638,9.548,19.547,19.367,31.617,25.492,4.053,2.072,8.557,3.783,11.62,7.206,1.531,1.621,2.882,3.783,5.044,4.324,1.351.36,2.792,0,4.144.54,1.892.811,2.612,3.063,3.423,4.954s2.882,3.783,4.684,2.973a9.392,9.392,0,0,0,3.513,9.368,6.227,6.227,0,0,1,2.252,2.072,7.725,7.725,0,0,1,.45,2.432,9.344,9.344,0,0,0,3.423,5.855c-1.8,2.883-.36,7.116-.27,10.719,0,3.063-.991,5.945-1.711,8.918-1.982,8.737-.9,17.835.721,26.573.9,4.864,2.072,9.818,5.224,13.6.991,1.171,2.252,2.252,3.333,3.423a30.968,30.968,0,0,1,5.044,7.747,60.949,60.949,0,0,1,5.495,17.655,33.858,33.858,0,0,0,2.612,8.918c1.982,4.324.18,9.638,1.892,13.962.811,1.982,2.252,3.693,2.792,5.675.721,2.973-.9,6.035-1.351,9.008-.991,7.116,4.144,13.782,4.594,20.988a1.3,1.3,0,0,1-.27,1.171c-.36.36-.991.36-1.441.631-.9.45-1.171,1.621-1.441,2.7s-1.081,2.162-2.072,1.8c-14.773,7.927-30.086,15.223-44.948,23.15l-6.756,3.6L177.15,603.792a2.6,2.6,0,0,0-1.441,2.342c0,.45.09.9.09,1.351-2.522.631-4.954,1.351-6.666,1.711-.721.18-1.441.271-2.162.451a2.7,2.7,0,0,0,.36-.9,1.843,1.843,0,0,0-1.621-1.8,5.143,5.143,0,0,0-2.612.36,37.05,37.05,0,0,1-6.305,1.171,52.56,52.56,0,0,0-7.566.9,8.556,8.556,0,0,0-5.855,4.5,9.706,9.706,0,0,0-.63,4.234,63.527,63.527,0,0,0,1.982,16.484,1.374,1.374,0,0,0,.63,1.081c.36.09.721,0,.991.18a1.4,1.4,0,0,1,.54.721c1.531,3.423,1.892,7.3,2.252,10.989.631,5.585,1.351,11.079,2.252,16.664.54,3.242,1.171,6.575,3.333,9.1,2.342,2.7,5.945,3.873,9.458,4.414,7.476.991,14.953-.541,22.249-2.072a6.644,6.644,0,0,0,3.783-1.711,4.33,4.33,0,0,0,.9-2.973c-.18-3.693-3.513-6.305-6.576-8.377l-4.143-2.882a1.88,1.88,0,0,1-.9-2.072l.27-5.495h-.811c.9-3.873,2.342-7.566,5.225-10.178,1.982-1.8,4.5-3.063,6.576-4.684a16.5,16.5,0,0,0,9.1,3.333c5.4-7.3,13.061-12.25,20.628-17.114,6.215-3.873,12.611-7.476,19.186-10.719,5.315-2.612,10.719-5.134,16.214-7.386,7.747-3.243,15.673-6.125,23.51-9.008,5.315-1.892,10.629-3.783,15.4-6.576,12.611-7.3,21.528-21.8,19.817-36.391-2.162-18.375,2.432-37.562,2.162-56.028-.09-5.4-.27-10.809-1.892-16.034a9.525,9.525,0,0,1,1.081.9c3.243,3.063,4.053,7.927,7.206,11.44,2.432,2.7,6.125,4.5,7.657,7.837,1.171,2.522.991,6.035,3.333,7.476a15.787,15.787,0,0,0,2.162.991,6.557,6.557,0,0,1,1.982,2.162c2.522,3.6,5.044,7.386,5.315,11.71.09,1.711,0,3.693,1.261,4.864.36.36.811.54.991.991.36.9-.631,1.891-.811,2.882-.27,1.351,1.081,2.432,1.982,3.6a5.678,5.678,0,0,1,0,6.666c-7.386,9.638-8.737,22.519-15.223,32.788-2.252,3.513-4.684,6.936-6.846,10.449-6.666,10.989-10,23.69-13.241,36.121a20.125,20.125,0,0,0,5.495,6.215A30.81,30.81,0,0,1,311,639.913a28.015,28.015,0,0,0-2.072,2.522,6.517,6.517,0,0,0-1.982-1.531,71.1,71.1,0,0,0-1.8,15.763c0,3.513.45,7.477,3.333,9.458a11.075,11.075,0,0,0,3.693,1.531l6.215,1.8a6.322,6.322,0,0,0,3.423.36c.721-.18,1.351-.63,2.162-.811a5.641,5.641,0,0,1,2.432.27l5.315,1.531a28.771,28.771,0,0,1,5.315,1.892c1.531.721,2.973,1.711,4.414,2.522a48.141,48.141,0,0,0,7.747,3.153l9.188,3.153A33.825,33.825,0,0,0,366.4,683.6c1.892.18,3.783,0,5.675.36,1.441.27,2.792.721,4.234.9a11.14,11.14,0,0,0,6.666-1.982,5.752,5.752,0,0,0,1.892-1.711c1.351-2.072.18-4.864-1.171-7.026-2.432-3.963-5.495-7.656-9.548-9.908-1.621-.9-3.423-1.531-5.044-2.432-4.774-2.342-8.377-6.215-12.971-8.918a3.124,3.124,0,0,0-3.873.27c-3.783-2.432-7.837-4.864-9.908-8.828a20.071,20.071,0,0,1-1.8-6.125c2.162.541,4.234.9,6.4,1.261C350.458,626.312,354.331,612.53,361.177,600.279ZM274.613,216.1c-.18.991-.36,2.072-.631,3.063-1.8,8.467-4.414,17.925-10.269,24.231a25.237,25.237,0,0,1-6.666,4.414l-.631.36C260.651,236.729,267.407,226.19,274.613,216.1Z" transform="translate(-12.76 -22.598)" fill="url(#c)"/><path d="M301.639,166.088c.631-3.153,1.171-6.4,2.883-9.188a20.124,20.124,0,0,1,4.234-4.5c2.792-2.342,5.675-4.594,9.1-5.675,3.423-1.171,7.476-.991,10.359,1.171s4.054,5.945,4.5,9.548a23.374,23.374,0,0,1-2.432,14.412c-2.792,4.864-7.656,8.107-11.71,11.98a46.289,46.289,0,0,0-7.657,9.548,28.06,28.06,0,0,1-3.513,5.044,6.678,6.678,0,0,1-5.495,2.252,9.589,9.589,0,0,1-4.5-2.612c-1.711-1.441-6.125-4.053-6.305-6.4-.09-1.892,3.423-6.125,4.234-7.927A84.318,84.318,0,0,0,301.639,166.088Z" transform="translate(-31.048 -22.756)" fill="#fbbebe"/><path d="M301.639,166.088c.631-3.153,1.171-6.4,2.883-9.188a20.124,20.124,0,0,1,4.234-4.5c2.792-2.342,5.675-4.594,9.1-5.675,3.423-1.171,7.476-.991,10.359,1.171s4.054,5.945,4.5,9.548a23.374,23.374,0,0,1-2.432,14.412c-2.792,4.864-7.656,8.107-11.71,11.98a46.289,46.289,0,0,0-7.657,9.548,28.06,28.06,0,0,1-3.513,5.044,6.678,6.678,0,0,1-5.495,2.252,9.589,9.589,0,0,1-4.5-2.612c-1.711-1.441-6.125-4.053-6.305-6.4-.09-1.892,3.423-6.125,4.234-7.927A84.318,84.318,0,0,0,301.639,166.088Z" transform="translate(-31.048 -22.756)" opacity="0.1"/><path d="M197.8,261.045a83.44,83.44,0,0,1,22.159-2.7c12.431.18,25.312,3.153,37.112-.63a65.078,65.078,0,0,0,8.917-3.873,23.583,23.583,0,0,0,6.666-4.324c5.855-6.215,8.467-15.673,10.269-24.05s2.342-17.025,2.792-25.582c3.063,1.441,6.305,2.882,9.728,2.522s6.756-2.882,6.756-6.305c-.54,7.927-.9,16.034.45,23.87.54,3.153,1.351,6.215,1.621,9.368.991,11.35-4.954,22.79-2.792,33.959a8.3,8.3,0,0,1-3.873,8.828c-3.063,1.621-6.666,1.892-10,2.7-6.576,1.711-12.341,5.855-19.006,7.476-3.063.721-6.305.9-9.368,1.711-4.414,1.171-8.377,3.693-12.791,4.414-3.333.631-6.756.18-10.179.45-2.973.27-5.855.991-8.737,1.081-7.206.18-14.052-3.873-18.826-9.278S200.773,267.621,197.8,261.045Z" transform="translate(-21.79 -27.727)" fill="#f57f17"/><path d="M548.886,278.813a61.973,61.973,0,1,1-61.973,61.973h0a61.97,61.97,0,0,1,61.973-61.973m0-15.313a77.286,77.286,0,1,0,77.286,77.286h0A77.27,77.27,0,0,0,548.886,263.5Z" transform="translate(-48.96 -34.416)" fill="#3f3d56"/><rect width="18.105" height="19.096" transform="translate(488.486 210.979)" fill="#3f3d56"/><rect width="19.096" height="18.105" transform="translate(529.093 235.043) rotate(-59.003)" fill="#3f3d56"/><rect width="19.096" height="18.105" transform="translate(560.862 259.247) rotate(-29)" fill="#3f3d56"/><rect width="18.105" height="19.096" transform="translate(561.132 352.22) rotate(-57.999)" fill="#3f3d56"/><rect width="18.105" height="19.096" transform="translate(413.518 265.798) rotate(-61)" fill="#3f3d56"/><rect width="19.096" height="18.105" transform="translate(412.963 346.92) rotate(-32.001)" fill="#3f3d56"/><rect width="18.105" height="19.096" transform="translate(445.426 228.098) rotate(-30.997)" fill="#3f3d56"/><rect width="18.105" height="19.096" transform="translate(488.486 382.756)" fill="#3f3d56"/><rect width="18.105" height="19.096" transform="translate(529.098 377.745) rotate(-30.997)" fill="#3f3d56"/><rect width="19.096" height="18.105" transform="translate(445.338 384.72) rotate(-59.003)" fill="#3f3d56"/><rect width="21.979" height="16.214" transform="translate(402.643 298.804)" fill="#3f3d56"/><rect width="21.979" height="16.214" transform="translate(575.32 298.804)" fill="#3f3d56"/><path d="M708.786,154.913a61.973,61.973,0,1,1-61.973,61.973h0a61.97,61.97,0,0,1,61.973-61.973m0-15.313a77.286,77.286,0,1,0,77.286,77.286h0A77.27,77.27,0,0,0,708.786,139.6Z" transform="translate(-64.827 -22.121)" fill="#3f3d56"/><rect width="18.105" height="19.096" transform="translate(632.519 99.374)" fill="#3f3d56"/><rect width="19.096" height="18.105" transform="translate(673.141 123.45) rotate(-59.003)" fill="#3f3d56"/><rect width="19.096" height="18.105" transform="translate(704.902 147.654) rotate(-29)" fill="#3f3d56"/><rect width="18.105" height="19.096" transform="translate(705.105 240.586) rotate(-57.999)" fill="#3f3d56"/><rect width="18.105" height="19.096" transform="translate(557.556 154.208) rotate(-61)" fill="#3f3d56"/><rect width="19.096" height="18.105" transform="translate(556.995 235.33) rotate(-32.001)" fill="#3f3d56"/><rect width="18.105" height="19.096" transform="translate(589.477 116.502) rotate(-30.997)" fill="#3f3d56"/><rect width="18.105" height="19.096" transform="translate(632.519 271.15)" fill="#3f3d56"/><rect width="18.105" height="19.096" transform="translate(673.145 266.15) rotate(-30.997)" fill="#3f3d56"/><rect width="19.096" height="18.105" transform="translate(589.424 273.042) rotate(-59.003)" fill="#3f3d56"/><rect width="21.979" height="16.214" transform="translate(546.676 187.199)" fill="#3f3d56"/><rect width="21.979" height="16.214" transform="translate(719.353 187.199)" fill="#3f3d56"/><path d="M388.876,149.613h2.162a61.99,61.99,0,0,1-2.072,123.946H386.8a61.99,61.99,0,0,1,2.072-123.946m0-15.313h0a77.308,77.308,0,0,0-2.7,154.572h2.7A77.308,77.308,0,0,0,391.488,134.3Z" transform="translate(-33.073 -21.595)" fill="#3f3d56"/><rect width="19.096" height="18.105" transform="translate(347.049 113.398) rotate(-88.01)" fill="#3f3d56"/><rect width="19.096" height="18.105" transform="translate(387.522 119.765) rotate(-57.011)" fill="#3f3d56"/><rect width="19.096" height="18.105" transform="translate(418.361 144.976) rotate(-27.008)" fill="#3f3d56"/><rect width="18.105" height="19.096" transform="matrix(0.559, -0.829, 0.829, 0.559, 415.471, 237.874)" fill="#3f3d56"/><rect width="18.105" height="19.096" transform="matrix(0.515, -0.857, 0.857, 0.515, 270.944, 146.432)" fill="#3f3d56"/><rect width="19.186" height="18.196" transform="translate(266.181 228.949) rotate(-29.888)" fill="#3f3d56"/><rect width="18.105" height="19.096" transform="translate(304.117 109.802) rotate(-29.013)" fill="#3f3d56"/><rect width="19.096" height="18.105" transform="translate(341.089 284.989) rotate(-88.01)" fill="#3f3d56"/><rect width="18.105" height="19.096" transform="translate(382.583 262.298) rotate(-29.013)" fill="#3f3d56"/><rect width="19.096" height="18.105" transform="translate(298.717 266.403) rotate(-57.011)" fill="#3f3d56"/><rect width="16.214" height="21.979" transform="translate(258.376 195.205) rotate(-88.01)" fill="#3f3d56"/><rect width="16.214" height="21.979" transform="translate(430.927 201.163) rotate(-88.01)" fill="#3f3d56"/><path d="M174.071,658.794a19.593,19.593,0,0,0-6.4,1.982c-2.7,1.621-4.414,4.594-5.585,7.476-2.973,7.386-3.6,15.493-3.693,23.42-.09,6.4.09,12.971,2.432,18.916a11.98,11.98,0,0,0,3.153,4.954,11.309,11.309,0,0,0,4.324,2.072c3.423.9,7.386.9,10.179-1.261,3.153-2.432,3.873-6.756,4.594-10.629.9-5.225,2.162-10.81,6.035-14.5,2.882-2.7,7.026-4.053,9.188-7.386,2.522-3.964,1.171-9.188-.45-13.6-1.351-3.874-3.423-11.62-7.476-13.6S178.215,657.983,174.071,658.794Z" transform="translate(-17.879 -73.365)" fill="#fbbebe"/><path d="M339.141,679.172a28.722,28.722,0,0,1-6.305,11.62c-1.8,2.072-4.053,4.5-3.063,7.116a6,6,0,0,0,1.711,2.252c13.241,12.881,31.707,19.186,49.993,21.528a1.532,1.532,0,0,0,.9,0c.54-.27.631-.9.721-1.531a20.6,20.6,0,0,0,0-5.765c-.9-4.5-4.864-7.656-8.647-10.089s-8.017-4.864-10.179-8.918c-2.7-5.044-1.531-11.53-4.684-16.214-2.612-3.783-7.386-5.4-11.89-6.125-1.621-.27-4.954-1.982-6.305-1.171C339.952,672.687,339.682,677.641,339.141,679.172Z" transform="translate(-34.862 -74.918)" fill="#fbbebe"/><path d="M171.089,658.3a1.843,1.843,0,0,0-1.621-1.8,5.141,5.141,0,0,0-2.612.36,37.077,37.077,0,0,1-6.305,1.171,52.577,52.577,0,0,0-7.566.9,8.555,8.555,0,0,0-5.855,4.5,11.246,11.246,0,0,0-.631,4.233,62.852,62.852,0,0,0,1.982,16.394,1.671,1.671,0,0,0,.63,1.081c.36.09.721,0,.991.18a1.4,1.4,0,0,1,.54.721c1.531,3.423,1.892,7.206,2.252,10.99.63,5.495,1.351,10.99,2.252,16.484.54,3.153,1.171,6.576,3.333,9.008,2.342,2.7,5.945,3.873,9.458,4.324,7.476.991,14.953-.54,22.339-2.072a6.644,6.644,0,0,0,3.783-1.712,4.33,4.33,0,0,0,.9-2.973c-.18-3.693-3.513-6.305-6.576-8.287l-4.234-2.882a2.426,2.426,0,0,1-.721-.63,2.362,2.362,0,0,1-.18-1.351l.27-5.4a15.557,15.557,0,0,0-13.512,8.377c-.54,1.171-1.171,2.522-2.342,2.973-1.531.54-3.153-.72-3.693-2.252a10.682,10.682,0,0,1,.09-4.773c2.432-13.242,1.892-26.843,3.423-40.174a8.71,8.71,0,0,1,1.351-4.234C169.558,660.46,170.909,659.559,171.089,658.3Z" transform="translate(-16.698 -73.41)" fill="#3f3d56"/><path d="M372.919,713.376a34.381,34.381,0,0,1,2.162,2.883c.54,1.081.54,2.612-.45,3.243a2.974,2.974,0,0,1-1.982.18,65.556,65.556,0,0,1-35.58-16.124,24.113,24.113,0,0,1-4.324-4.774c-1.171-1.8-2.162-3.873-4.143-4.684a70.3,70.3,0,0,0-1.8,15.674c0,3.423.45,7.476,3.333,9.458a13.339,13.339,0,0,0,3.693,1.531l6.215,1.712a6.322,6.322,0,0,0,3.423.36c.721-.18,1.351-.63,2.162-.811a5.638,5.638,0,0,1,2.432.27l5.314,1.531a36.853,36.853,0,0,1,5.314,1.8c1.531.72,2.973,1.621,4.414,2.432a48.09,48.09,0,0,0,7.747,3.153l9.368,3.243a34.99,34.99,0,0,0,8.017,2.072c1.891.18,3.783,0,5.675.36,1.441.27,2.793.72,4.234.9a11.144,11.144,0,0,0,6.666-1.982,5.757,5.757,0,0,0,1.892-1.712c1.351-2.071.18-4.864-1.171-7.026-2.432-3.873-5.495-7.567-9.548-9.819-1.621-.9-3.423-1.531-5.044-2.432-4.774-2.342-8.467-6.215-12.971-8.828C373.64,703.558,370.938,710.044,372.919,713.376Z" transform="translate(-34.591 -77.145)" fill="#3f3d56"/><path d="M224.206,290.168a39.379,39.379,0,0,1-16.664,6.485,83.215,83.215,0,0,1-9.458.541,237.934,237.934,0,0,1-39.183-3.243c5.135-5.675,10.359-11.71,12.341-19.186a29.9,29.9,0,0,0,.54-11.98,88.306,88.306,0,0,0-3.693-15.133,101.927,101.927,0,0,0,16.574-.45c3.153-.36,10.809-3.153,13.512-.991,2.522,1.982.631,9.1.54,12.431V259a40.314,40.314,0,0,0,3.153,14.5C206.01,282.331,214.477,289.537,224.206,290.168Z" transform="translate(-17.93 -32.619)" fill="#fbbebe"/><path d="M199.916,258.541a32.928,32.928,0,0,1-27.023,4.143,88.29,88.29,0,0,0-3.693-15.133,101.934,101.934,0,0,0,16.574-.45c3.153-.36,10.809-3.153,13.512-.991C201.9,248.182,200.006,255.3,199.916,258.541Z" transform="translate(-18.952 -32.609)" opacity="0.1"/><circle cx="32.968" cy="32.968" r="32.968" transform="translate(129.98 163.869)" fill="#fbbebe"/><path d="M319.8,399.65a15.377,15.377,0,0,1-7.476,13.241,28.838,28.838,0,0,1-8.107,2.792c-15.043,3.6-30.536,6.576-46.029,5.675-3.333-.18-6.756-.541-9.728-2.072s-5.585-4.233-6.035-7.566a7.726,7.726,0,0,0-.45-2.432,8.248,8.248,0,0,0-2.252-2.072,9.247,9.247,0,0,1-3.513-9.278c-1.892.811-3.873-1.081-4.774-2.883s-1.621-4.143-3.513-4.864c-1.261-.54-2.792-.27-4.144-.54-2.162-.54-3.513-2.7-5.044-4.324-3.153-3.333-7.566-5.044-11.62-7.116-12.16-6.125-22.069-15.763-31.707-25.312-4.864-4.774-9.818-9.638-13.6-15.313a55.424,55.424,0,0,1-2.972-4.954,123.748,123.748,0,0,1-7.567-17.385c-1.261-3.153-2.432-6.575-1.982-9.908.09-.27.09-.631.18-.9a18.875,18.875,0,0,1,2.973-6.035c3.333-4.954,7.747-9.548,13.511-11.079s11.53.36,17.385,1.531a43.844,43.844,0,0,0,5.855.9c6.215.45,12.341-1.261,18.376-2.883l6.576-1.8c3.243-.9,4.954-4.864,8.2-5.585a10.479,10.479,0,0,1,4.414.27c6.756,1.261,13.512,2.973,19.457,6.305A21.763,21.763,0,0,1,250,288.675a23.34,23.34,0,0,1,8.737,12.971c1.351,5.675.09,11.8,1.441,17.475,1.081,4.684,3.963,8.827,6.756,12.791l16.124,22.97a151.505,151.505,0,0,0,11.8,15.4C303.5,379.743,319.534,386.859,319.8,399.65Z" transform="translate(-16.967 -35.991)" fill="#f57f17"/><path d="M289.639,166.088c.631-3.153,1.171-6.4,2.882-9.188a20.125,20.125,0,0,1,4.234-4.5c2.792-2.342,5.675-4.594,9.1-5.675,3.423-1.171,7.476-.991,10.359,1.171s4.053,5.945,4.5,9.548a23.371,23.371,0,0,1-2.432,14.412c-2.792,4.864-7.656,8.107-11.71,11.98a46.294,46.294,0,0,0-7.656,9.548,28.06,28.06,0,0,1-3.513,5.044,6.678,6.678,0,0,1-5.495,2.252,9.59,9.59,0,0,1-4.5-2.612c-1.711-1.441-6.125-4.053-6.305-6.4-.09-1.892,3.423-6.125,4.233-7.927A75.226,75.226,0,0,0,289.639,166.088Z" transform="translate(-29.858 -22.756)" fill="#fbbebe"/><path d="M396.022,573.743c-4.143,7.656-8.647,15.133-12.341,22.97-2.162,4.594-4.053,9.368-6.4,13.782-2.612,4.864-5.855,9.458-8.557,14.232-6.846,12.16-10.719,25.942-14.232,39.453a78.25,78.25,0,0,1-28.1-9.908c-.54-.36-1.171-.721-1.711-1.081a19.712,19.712,0,0,1-5.675-6.216c3.243-12.34,6.666-24.951,13.331-35.85,2.162-3.6,4.684-6.936,6.846-10.359,6.486-10.179,7.837-23.06,15.223-32.518a5.679,5.679,0,0,0,0-6.666c-.9-1.081-2.252-2.162-1.982-3.513.18-.991,1.261-1.892.811-2.883a2.616,2.616,0,0,0-.991-.991c-1.261-1.171-1.081-3.153-1.171-4.864-.27-4.324-2.882-8.107-5.4-11.62a8.993,8.993,0,0,0-1.982-2.162,15.865,15.865,0,0,0-2.162-.991c-2.342-1.441-2.162-4.954-3.333-7.476-1.441-3.333-5.224-5.044-7.657-7.837-3.153-3.423-3.873-8.287-7.206-11.35a9.518,9.518,0,0,0-1.081-.9c1.621,5.134,1.8,10.539,1.892,15.854.36,18.376-4.324,37.382-2.162,55.667,1.712,14.5-7.206,28.915-19.817,36.121-4.864,2.792-10.179,4.594-15.493,6.486-7.927,2.792-15.763,5.675-23.6,8.917-5.495,2.252-10.9,4.684-16.214,7.386a199.39,199.39,0,0,0-19.186,10.629c-7.657,4.864-15.223,9.729-20.628,17.025-5.225-.18-10-3.333-13.331-7.386s-5.4-9.008-7.3-13.872c-1.712-4.234-3.333-8.557-3.513-13.061a2.6,2.6,0,0,1,1.531-2.253l36.211-19.186,6.756-3.6c14.863-7.836,30.176-15.133,44.948-22.969.991.27,1.8-.811,2.072-1.8s.54-2.252,1.441-2.612c.45-.27,1.081-.18,1.441-.63a1.434,1.434,0,0,0,.27-1.171c-.45-7.206-5.675-13.782-4.594-20.9.45-3.063,1.982-6.035,1.351-9.008-.45-2.072-1.982-3.693-2.792-5.675-1.8-4.324,0-9.638-1.982-13.872a33.242,33.242,0,0,1-2.612-8.828,59.544,59.544,0,0,0-5.495-17.565,34.159,34.159,0,0,0-5.044-7.657c-1.081-1.171-2.342-2.252-3.333-3.423-3.153-3.693-4.324-8.738-5.224-13.512-1.621-8.737-2.7-17.745-.721-26.393.721-2.973,1.712-5.855,1.712-8.917,0-3.964-1.8-8.648.991-11.53a9.658,9.658,0,0,1,4.054-2.072,121.485,121.485,0,0,1,19.637-3.6l30.266-3.963c3.423-.45,7.026-.9,10.089-2.612,4.053-2.252,6.846-6.486,8.467-10.809,5.315,3.873,7.3,11.079,11.53,16.124,2.072,2.432,4.594,4.414,6.846,6.666a68.817,68.817,0,0,1,7.566,9.368c6.305,8.647,12.611,17.385,17.115,27.113,2.342,5.044,4.144,10.269,6.035,15.583,7.386,20.627,19.367,40.174,24.411,61.433,1.261,5.224,4.414,9.908,4.864,15.223C401.336,563.294,398.724,568.7,396.022,573.743Z" transform="translate(-20.312 -48.576)" fill="#3f3d56"/><path d="M243.681,401.73a9.5,9.5,0,0,0-1.081,4.5c.721-3.333,5.224-5.224,5.585-8.467.09-1.531-.18-1.441-1.081-.631C245.573,398.308,244.942,400.379,243.681,401.73Z" transform="translate(-26.236 -47.619)" opacity="0.1"/><path d="M258.993,413.38a6.427,6.427,0,0,0-2.072,3.062,7.993,7.993,0,0,0-.451,5.4,2.562,2.562,0,0,0,1.081-1.892,14.2,14.2,0,0,1,1.441-3.153c.54-.9,3.063-2.882,3.063-3.873C261.965,411.488,259.623,412.839,258.993,413.38Z" transform="translate(-27.586 -49.18)" opacity="0.1"/><path d="M249.66,288.575a31.968,31.968,0,0,1-6.936,4.594c-6.576,3.333-13.782,5.044-20.357,8.287a99.252,99.252,0,0,0-9.458,5.495l-19.547,12.431a21.708,21.708,0,0,0-4.324,3.243c-2.342,2.522-2.342,6.936-4.5,9.548a13.428,13.428,0,0,1-9.458,4.414,31.99,31.99,0,0,1-10.539-1.8c-2.072-.631-4.054-1.351-6.035-2.162a28.261,28.261,0,0,1-5.765-3.333c-3.513-2.612-6.305-6.486-6.846-10.809a21.181,21.181,0,0,1,1.171-8.828,38.182,38.182,0,0,1,2.072-5.314,17.318,17.318,0,0,1,1.621-2.792c4.5-6.4,12.431-9.368,20.087-10.809,4.054-.811,8.107-1.261,12.16-1.982a43.873,43.873,0,0,0,5.855.9c6.215.45,12.34-1.261,18.376-2.882l6.576-1.8c3.243-.9,4.954-4.864,8.2-5.585a10.477,10.477,0,0,1,4.414.27c6.756,1.261,13.512,2.973,19.457,6.305C247.138,286.774,248.4,287.675,249.66,288.575Z" transform="translate(-16.632 -35.981)" opacity="0.1"/><path d="M265.584,192.5c-.811,8.017-7.566,13.872-11.71,20.718-1.982,3.333-3.423,7.026-5.224,10.449a105.259,105.259,0,0,1-6.846,10.9l-7.3,10.629c-4.324,6.215-8.647,12.521-14.142,17.835-9.548,1.621-17.655,8.738-26.753,12.25-7.3,2.792-15.223,3.153-22.879,4.594s-15.583,4.5-20.087,10.809a27.727,27.727,0,0,0-3.783,8.107,20.991,20.991,0,0,0-1.171,8.828c.54,4.324,3.333,8.2,6.846,10.809a38.16,38.16,0,0,0,11.8,5.495,32.39,32.39,0,0,0,10.539,1.8c3.6-.18,7.3-1.531,9.458-4.414s2.162-7.116,4.5-9.548a19.4,19.4,0,0,1,4.324-3.243l19.547-12.431c3.063-1.982,6.215-3.783,9.458-5.495,6.576-3.243,13.782-4.954,20.357-8.287s12.611-8.737,13.962-15.944c3.963-22.159,19.276-40.8,32.428-59.09-.45-.09-.27-1.081-.45-1.441a18.65,18.65,0,0,0-9.638-9.638C274.591,194.211,270.088,193.491,265.584,192.5Z" transform="translate(-16.612 -27.37)" fill="#f57f17"/><path d="M192.6,191.011a12.191,12.191,0,0,0-1.351-6.936c-2.162-3.6-6.756-4.864-10.809-5.765-3.963-.811-7.927-1.531-11.89-2.072-3.243-.45-6.666-.9-9.908-.18-4.5.991-8.2,3.963-12.34,5.855-4.954,2.162-10.359,2.792-15.673,3.963-5.224,1.261-10.629,3.243-13.962,7.566-2.522,3.243-3.513,7.386-4.234,11.44-6.215,33.689.45,68.188,1.711,102.417.54,13.331-.09,27.563-7.747,38.553l22.159-.54c5.675-.18,11.8-.45,16.214-3.963,3.963-3.062,5.765-8.017,7.476-12.7a38.694,38.694,0,0,0,2.792-11.44c.36-8.017-4.234-15.944-2.7-23.87,1.081-5.945,5.4-10.719,10-14.592s9.728-7.206,13.422-11.98c6.666-8.377,7.927-19.907,7.116-30.536-.45-6.305-1.621-12.7-1.081-19.006.45-4.774,1.892-9.638,5.044-13.331C190.442,199.568,192.243,196.956,192.6,191.011Z" transform="translate(-12.721 -25.701)" fill="#3f3d56"/><path d="M191.162,184.375c-2.162-3.513-6.576-4.864-10.629-5.675a10.8,10.8,0,0,1,5.224,4.144,11.757,11.757,0,0,1,1.351,6.936c-.27,5.945-2.162,8.557-5.675,12.791-3.153,3.693-4.594,8.557-5.044,13.331-.54,6.305.54,12.7,1.081,19.006.811,10.719-.45,22.159-7.116,30.536-3.693,4.684-8.828,8.107-13.421,11.98s-8.918,8.647-10,14.592c-1.441,7.927,3.063,15.854,2.7,23.87-.18,3.963-1.531,7.656-2.792,11.44-1.711,4.684-3.513,9.638-7.476,12.7-4.5,3.513-10.539,3.783-16.214,3.963l-15.673.45c-.36.54-.721,1.171-1.081,1.711l22.159-.54c5.675-.18,11.8-.45,16.214-3.963,3.963-3.063,5.765-8.017,7.476-12.7a38.687,38.687,0,0,0,2.792-11.44c.36-8.017-4.234-15.944-2.7-23.87,1.081-5.945,5.4-10.719,10-14.593s9.728-7.206,13.421-11.98c6.666-8.377,7.927-19.907,7.116-30.536-.45-6.305-1.621-12.7-1.081-19.006.45-4.774,1.892-9.638,5.044-13.331,3.513-4.234,5.4-6.846,5.675-12.791A11.65,11.65,0,0,0,191.162,184.375Z" transform="translate(-12.721 -26.001)" opacity="0.1"/><path d="M380.29,563.036,339.575,662.3a19.716,19.716,0,0,1-5.675-6.215c3.243-12.341,6.666-24.952,13.331-35.851,2.162-3.6,4.684-6.936,6.846-10.359,6.486-10.178,7.837-23.059,15.223-32.517a5.679,5.679,0,0,0,0-6.666c-.9-1.081-2.252-2.162-1.982-3.513.18-.991,1.261-1.892.811-2.882a2.616,2.616,0,0,0-.991-.991c-1.261-1.171-1.081-3.153-1.171-4.865-.27-4.324-2.883-8.107-5.4-11.62a9,9,0,0,0-1.982-2.162,15.815,15.815,0,0,0-2.162-.991c-2.342-1.441-2.162-4.954-3.333-7.476-1.441-3.333-5.224-5.044-7.657-7.837-3.153-3.423-3.873-8.287-7.206-11.35l-.27-.721,3.153-19.186Z" transform="translate(-35.296 -57.596)" opacity="0.1"/></g><g transform="translate(503.709 1141.556)"><g transform="translate(0 -502)" clip-path="url(#d)"><g transform="translate(94.148)" opacity="0.7"><g clip-path="url(#e)"><g transform="translate(0)" clip-path="url(#f)"><g transform="translate(-14395.25 -14081.576)"><g clip-path="url(#g)"><g transform="translate(14301.104 14300.667) rotate(-90)"><path d="M219.09,0V423.97H0V0Z" transform="translate(0 0)" fill="url(#h)"/></g></g></g><g transform="translate(-94.148 219.09) rotate(-90)"><path d="M219.09,0V423.97H0V0Z" transform="translate(0 0)" fill="url(#i)"/></g></g></g></g></g><path d="M407.72-131H475.8v40.152H407.72Z" transform="translate(-229.777 -209.083)" fill="#bcbcbc"/><g transform="translate(0 -502)" clip-path="url(#d)"><g transform="translate(177.725 160.172)" opacity="0.1"><g transform="translate(0 0)"><g clip-path="url(#k)"><g transform="translate(0)"><path d="M-2.012-7.326H63.528C64.317-10.761,64.95-13,64.95-13H-3.57s.7,2.23,1.558,5.674" transform="translate(3.57 13)"/></g></g></g></g><g transform="translate(95.894 1.309)"><path d="M-9.073,0h218.13a7.026,7.026,0,0,1,7.027,7.027V141.4H-16.1V7.027A7.026,7.026,0,0,1-9.073,0Z" transform="translate(16.1)" fill="#525360"/></g><g transform="translate(95.894 142.714)"><path d="M-290.743-28.178h-218.13A7.026,7.026,0,0,1-515.9-35.2V-50h232.183v14.8a7.026,7.026,0,0,1-7.027,7.027" transform="translate(515.9 50)" fill="#bcbcbc"/></g><g transform="translate(208.057 149.697)"><path d="M-5.072,0A3.928,3.928,0,0,1-1.144,3.928,3.928,3.928,0,0,1-5.072,7.856,3.928,3.928,0,0,1-9,3.928,3.928,3.928,0,0,1-5.072,0" transform="translate(9)" fill="#525360"/></g><g transform="translate(170.96 190.286)"><path d="M-4.6,0H70.314A3.566,3.566,0,0,1,73.88,3.566V8.729H-8.17V3.566A3.566,3.566,0,0,1-4.6,0Z" transform="translate(8.17)" fill="#bcbcbc"/></g><g transform="translate(139.973 31.039)" opacity="0.5"><g clip-path="url(#l)"><g clip-path="url(#m)"><g transform="translate(-14441.077 -14112.616)"><g clip-path="url(#g)"><g transform="translate(14301.104 14300.667) rotate(-90)"><path d="M219.09,0V423.97H0V0Z" transform="translate(0 0)" fill="url(#o)"/></g></g></g><g transform="translate(-139.973 188.051) rotate(-90)"><path d="M219.09,0V423.97H0V0Z" transform="translate(0 0)" fill="url(#p)"/></g></g></g></g><g transform="translate(141.82 31.642)"><path d="M-2.536,0h136.4a1.964,1.964,0,0,1,1.964,1.964V78.323a1.964,1.964,0,0,1-1.964,1.964H-2.536A1.964,1.964,0,0,1-4.5,78.323V1.964A1.964,1.964,0,0,1-2.536,0" transform="translate(4.5)" fill="#fff"/></g><g transform="translate(180.911 43.168)" opacity="0.5"><g clip-path="url(#q)"><path d="M-2.536,0H9a1.964,1.964,0,0,1,1.964,1.964v9.994A1.964,1.964,0,0,1,9,13.922H-2.536A1.964,1.964,0,0,1-4.5,11.958V1.964A1.964,1.964,0,0,1-2.536,0" transform="translate(4.5)" fill="#38d29f"/></g></g><g transform="translate(201.018 43.168)"><path d="M-1,0H39.22a.772.772,0,1,1,0,1.545H-1A.772.772,0,0,1-1.77.772.772.772,0,0,1-1,0" transform="translate(1.77)" fill="#dfdfdf"/></g><g transform="translate(201.018 47.811)"><path d="M-1,0H32.172a.772.772,0,1,1,0,1.545H-1A.772.772,0,0,1-1.77.772.772.772,0,0,1-1,0" transform="translate(1.77)" fill="#dfdfdf"/></g><g transform="translate(180.911 64.824)" opacity="0.5"><g clip-path="url(#q)"><path d="M-2.536,0H9a1.964,1.964,0,0,1,1.964,1.964v9.994A1.964,1.964,0,0,1,9,13.922H-2.536A1.964,1.964,0,0,1-4.5,11.958V1.964A1.964,1.964,0,0,1-2.536,0" transform="translate(4.5)" fill="#38d29f"/></g></g><g transform="translate(201.018 64.824)"><path d="M-1,0H39.22a.772.772,0,1,1,0,1.545H-1A.772.772,0,0,1-1.77.772.772.772,0,0,1-1,0" transform="translate(1.77)" fill="#dfdfdf"/></g><g transform="translate(201.018 69.463)"><path d="M-1,0H39.22a.772.772,0,1,1,0,1.545H-1A.772.772,0,0,1-1.77.772.772.772,0,0,1-1,0" transform="translate(1.77)" fill="#dfdfdf"/></g><g transform="translate(180.911 86.48)" opacity="0.5"><g clip-path="url(#q)"><path d="M-2.536,0H9a1.964,1.964,0,0,1,1.964,1.964v9.994A1.964,1.964,0,0,1,9,13.922H-2.536A1.964,1.964,0,0,1-4.5,11.958V1.964A1.964,1.964,0,0,1-2.536,0" transform="translate(4.5)" fill="#38d29f"/></g></g><g transform="translate(201.018 86.48)"><path d="M-1,0H39.22a.772.772,0,1,1,0,1.545H-1A.772.772,0,0,1-1.77.772.772.772,0,0,1-1,0" transform="translate(1.77)" fill="#dfdfdf"/></g><g transform="translate(201.018 91.119)"><path d="M-.9,0H39.758a.694.694,0,0,1,.694.694V.851a.694.694,0,0,1-.694.694H-.9A.694.694,0,0,1-1.59.851V.694A.694.694,0,0,1-.9,0" transform="translate(1.59)" fill="#dfdfdf"/></g><g transform="translate(211.985 8.729)"><path d="M0-12.4V-22" transform="translate(0 22)" fill="none" stroke="#38d29f" stroke-width="2"/></g><g transform="translate(211.985 21.878)"><path d="M0-16.27v-12.6" transform="translate(0 28.87)" fill="none" stroke="#38d29f" stroke-width="2"/></g><g transform="translate(210.239 32.733)"><path d="M-2.254,0A1.746,1.746,0,0,1-.509,1.746,1.746,1.746,0,0,1-2.254,3.491,1.746,1.746,0,0,1-4,1.746,1.746,1.746,0,0,1-2.254,0" transform="translate(4)" fill="#38d29f"/></g><g transform="translate(210.239 18.33)"><path d="M-2.254,0A1.746,1.746,0,0,1-.509,1.746,1.746,1.746,0,0,1-2.254,3.491,1.746,1.746,0,0,1-4,1.746,1.746,1.746,0,0,1-2.254,0Z" transform="translate(4)" fill="none" stroke="#fff" stroke-width="1"/></g><g transform="translate(211.985 8.729)"><path d="M0-12.4V-22" transform="translate(0 22)" fill="none" stroke="#38d29f" stroke-width="2"/></g><g transform="translate(211.985 21.878)"><path d="M0-16.27v-12.6" transform="translate(0 28.87)" fill="none" stroke="#38d29f" stroke-width="2"/></g><g transform="translate(210.239 32.733)"><path d="M-2.254,0A1.746,1.746,0,0,1-.509,1.746,1.746,1.746,0,0,1-2.254,3.491,1.746,1.746,0,0,1-4,1.746,1.746,1.746,0,0,1-2.254,0" transform="translate(4)" fill="#38d29f"/></g><g transform="translate(210.239 18.33)"><path d="M-2.254,0A1.746,1.746,0,0,1-.509,1.746,1.746,1.746,0,0,1-2.254,3.491,1.746,1.746,0,0,1-4,1.746,1.746,1.746,0,0,1-2.254,0Z" transform="translate(4)" fill="none" stroke="#fff" stroke-width="1"/></g><g transform="translate(211.985 121.765)"><path d="M0,0V13.529" fill="none" stroke="#38d29f" stroke-width="2"/></g><g transform="translate(211.985 109.545)"><path d="M0,0V12.6" fill="none" stroke="#38d29f" stroke-width="2"/></g><g transform="translate(210.239 107.799)"><path d="M-2.254,0A1.746,1.746,0,0,1-.509,1.746,1.746,1.746,0,0,1-2.254,3.491,1.746,1.746,0,0,1-4,1.746,1.746,1.746,0,0,1-2.254,0" transform="translate(4)" fill="#38d29f"/></g><g transform="translate(119.679 73.539)"><path d="M-17.752,0H-31.5" transform="translate(31.5)" fill="none" stroke="#38d29f" stroke-width="2"/></g><g transform="translate(132.829 73.539)"><path d="M-16.27,0h-12.6" transform="translate(28.87)" fill="none" stroke="#38d29f" stroke-width="2"/></g><g transform="translate(143.683 71.794)"><path d="M-2.254,0A1.746,1.746,0,0,1-.509,1.746,1.746,1.746,0,0,1-2.254,3.491,1.746,1.746,0,0,1-4,1.746,1.746,1.746,0,0,1-2.254,0" transform="translate(4)" fill="#38d29f"/></g><g transform="translate(178.161 190.067)" opacity="0.1"><g transform="translate(0 0)"><g clip-path="url(#t)"><path d="M408.22-66.5H476.3v1.309H408.22Z" transform="translate(-408.22 66.5)"/></g></g></g><g transform="translate(7.734 76.6)" opacity="0.7"><g clip-path="url(#u)"><g transform="translate(0 0)" clip-path="url(#v)"><g transform="translate(-14308.838 -14158.178)"><g clip-path="url(#g)"><g transform="translate(14301.104 14081.576)"><path d="M-17.722-315.956h423.97v219.09H-17.722Z" transform="translate(17.722 315.956)" fill="url(#x)"/></g></g></g><g transform="translate(-7.734 -76.6)"><path d="M-17.722-315.956h423.97v219.09H-17.722Z" transform="translate(17.722 315.956)" fill="url(#y)"/></g></g></g></g><g transform="translate(42.305 86.611)" opacity="0.6"><g clip-path="url(#z)"><g transform="translate(0.655 0.239)"><path d="M-2.416-107.077S-10.708-143.3,7.622-190" transform="translate(4.287 190)" fill="none" stroke="#525360" stroke-miterlimit="10" stroke-width="3"/></g></g></g><g transform="translate(8.584 158.862)"><path d="M-5.1,0H59.054s12.657,16.148-6.983,40.152H1.445S-16.885,23.567-5.1,0" transform="translate(9.053)" fill="#38d29f"/></g><g transform="translate(51.595 80.728)"><path d="M-3.038-11.006s6.376-11.347,21.652-7.856c0,0-12.626,21.5-24,14.459Z" transform="translate(5.39 19.529)" fill="#4db6ac"/></g><g transform="translate(36.757 86.632)"><path d="M-16.98-18.93A16.474,16.474,0,0,0-30.13-33.59s1.309,25.313,11.347,21.167Z" transform="translate(30.13 33.59)" fill="#4db6ac"/></g><g transform="translate(44.643 101.035)"><path d="M-1.454-22.464S.881-34.623,25.321-39.86c0,0-7.795,25.147-27.9,24.139Z" transform="translate(2.58 39.86)" fill="#4db6ac"/></g><g transform="translate(26.297 107.581)"><path d="M-22.585-31.633s2.571-12.713-12.7-24.5c0,0-16.585,28.224,11.993,33.531Z" transform="translate(40.075 56.13)" fill="#4db6ac"/></g><g transform="translate(43.286 128.094)"><path d="M-.056-27.71S-1.827-45.679,17.376-49.17c0,0-7.014,25.091-17.457,29.564Z" transform="translate(0.099 49.17)" fill="#4db6ac"/></g><g transform="translate(51.681 80.969)" opacity="0.3"><g clip-path="url(#aa)"><g transform="translate(0.132 0.208)"><path d="M0-19.161S16.585-31.818,23.567-34" transform="translate(0 34)" fill="none" stroke="#525360" stroke-miterlimit="10" stroke-width="1"/></g></g></g><g transform="translate(44.453 100.828)" opacity="0.3"><g clip-path="url(#ab)"><g transform="translate(0.159 0.207)"><path d="M0-31S20.076-52.381,27.932-55" transform="translate(0 55)" fill="none" stroke="#525360" stroke-miterlimit="10" stroke-width="1"/></g></g></g><g transform="translate(36.581 86.503)" opacity="0.3"><g clip-path="url(#ac)"><g transform="translate(0.176 0.13)"><path d="M0,0S12.22,16.585,11.347,20.949" fill="none" stroke="#525360" stroke-miterlimit="10" stroke-width="1"/></g></g></g><g transform="translate(30.87 107.534)" opacity="0.3"><g clip-path="url(#ad)"><g transform="translate(0.213 0.047)"><path d="M0,0S6.547,29.678,11.784,33.605" fill="none" stroke="#525360" stroke-miterlimit="10" stroke-width="1"/></g></g></g><g transform="translate(43.098 127.877)" opacity="0.3"><g transform="translate(0 0)"><g clip-path="url(#ae)"><g transform="translate(0.205 0.216)"><path d="M0-38.322S10.474-67.127,17.457-68" transform="translate(0 68)" fill="none" stroke="#525360" stroke-miterlimit="10" stroke-width="1"/></g></g></g></g><g transform="translate(12.098 158.862)" opacity="0.1"><g clip-path="url(#af)"><g transform="translate(0)"><path d="M-83.408,0h-64.156c-.144.292-.284.585-.436.873h62.41s12.347,15.76-6.285,39.279h1.484C-70.751,16.148-83.408,0-83.408,0" transform="translate(148)"/></g></g></g><path d="M0-46.4H423.97v14.372H0Z" transform="translate(0 245.24)" fill="#dfdfdf"/><path d="M41.16-13.47H429.2v5.879H41.16Z" transform="translate(-23.196 226.682)" fill="#dfdfdf"/><g transform="translate(17.964 213.212)" opacity="0.1"><g transform="translate(0 0)"><g clip-path="url(#ag)"><path d="M41.16-13.47H429.2v1.96H41.16Z" transform="translate(-41.16 13.47)"/></g></g></g><g transform="translate(301.236 73.539)"><path d="M0,0H2.619" fill="none" stroke="#38d29f" stroke-width="2"/></g><g transform="translate(278.105 73.539)"><path d="M0,0H19.587" fill="none" stroke="#38d29f" stroke-width="2"/></g><g transform="translate(276.359 71.794)"><path d="M-2.254,0A1.746,1.746,0,0,1-.509,1.746,1.746,1.746,0,0,1-2.254,3.491,1.746,1.746,0,0,1-4,1.746,1.746,1.746,0,0,1-2.254,0" transform="translate(4)" fill="#38d29f"/></g><g transform="translate(297.745 71.794)"><path d="M-2.254,0A1.746,1.746,0,0,1-.509,1.746,1.746,1.746,0,0,1-2.254,3.491,1.746,1.746,0,0,1-4,1.746,1.746,1.746,0,0,1-2.254,0Z" transform="translate(4)" fill="none" stroke="#fff" stroke-width="1"/></g><g transform="translate(357.318 123.315)" opacity="0.7"><g clip-path="url(#ah)"><g clip-path="url(#ai)"><g transform="translate(-14658.421 -14204.894)"><g clip-path="url(#g)"><g transform="translate(14301.104 14081.576)"><path d="M-818.72-369.275h423.97v219.09H-818.72Z" transform="translate(818.72 369.275)" fill="url(#ak)"/></g></g></g><g transform="translate(-357.318 -123.315)"><path d="M-818.72-369.275h423.97v219.09H-818.72Z" transform="translate(818.72 369.275)" fill="url(#al)"/></g></g></g></g><path d="M835.72-181H842.7v43.643H835.72Z" transform="translate(-470.982 321.096)" fill="#525360"/><path d="M835.72-214H842.7v14.4H835.72Z" transform="translate(-470.982 339.693)" fill="#39d29f"/><path d="M857.72-173H864.7v43.643H857.72Z" transform="translate(-483.381 316.587)" fill="#525360"/><path d="M857.72-206H864.7v14.4H857.72Z" transform="translate(-483.381 335.185)" fill="#4d89ef"/><path d="M884.72-156H891.7v43.643H884.72Z" transform="translate(-498.597 307.007)" fill="#525360"/><path d="M884.72-189H891.7v14.4H884.72Z" transform="translate(-498.597 325.604)" fill="#f55f44"/><g transform="translate(358.627 153.625)"><path d="M0,0H40.152V34.7A10.256,10.256,0,0,1,29.9,44.953H10.256A10.256,10.256,0,0,1,0,34.7Z" fill="#38d29f"/></g><g transform="translate(358.627 153.625)" opacity="0.1"><g transform="translate(0 0)"><g clip-path="url(#am)"><path d="M0,0V1.746H38.406v34.7a10.208,10.208,0,0,1-2.182,6.324,10.234,10.234,0,0,0,3.928-8.07V0Z"/></g></g></g></g></g><g transform="translate(329 -1290.878)"><line y2="124.207" transform="translate(1063.5 1290.5)" fill="none" stroke="#f88909" stroke-linecap="round" stroke-width="3" stroke-dasharray="9 10"/><g transform="translate(1056 1426.878)" fill="#f88909" stroke="#f88909" stroke-width="1"><circle cx="7" cy="7" r="7" stroke="none"/><circle cx="7" cy="7" r="6.5" fill="none"/></g></g></g></svg>