<svg xmlns="http://www.w3.org/2000/svg" xmlns:xlink="http://www.w3.org/1999/xlink" width="230.289" height="75.774" viewBox="0 0 230.289 75.774"><defs><linearGradient id="a" x1="2.205" y1="-0.558" x2="-1.04" y2="1.456" gradientUnits="objectBoundingBox"><stop offset="0" stop-color="#0fafb2"/><stop offset="0.996" stop-color="#360439"/></linearGradient><linearGradient id="b" x1="1.272" y1="0.02" x2="-1.972" y2="2.035" xlink:href="#a"/><linearGradient id="c" x1="7.248" y1="-0.639" x2="-6.415" y2="1.619" xlink:href="#a"/></defs><g transform="translate(0)"><g transform="translate(0.001)"><path d="M305.379,159.135v-9.819H285.115a11.828,11.828,0,0,0-11.828,11.829v18.483a11.8,11.8,0,0,0,11.8,11.8H303.6a11.8,11.8,0,0,0,11.8-11.8V159.135Zm-5.7,22.287H289a5.71,5.71,0,0,1-5.711-5.71V165.028a5.711,5.711,0,0,1,5.711-5.71h16.4v16.394A5.71,5.71,0,0,1,299.682,181.422Z" transform="translate(-273.287 -115.651)" fill="url(#a)"/><path d="M332.007,120.787H313.4a11.751,11.751,0,0,0-11.752,11.75V162.9h30.358a11.751,11.751,0,0,0,11.75-11.751V132.537A11.751,11.751,0,0,0,332.007,120.787Zm1.749,26.414a5.693,5.693,0,0,1-5.693,5.692H311.651V136.481a5.693,5.693,0,0,1,5.693-5.693h10.719a5.693,5.693,0,0,1,5.693,5.693Z" transform="translate(-268.181 -120.787)" fill="url(#b)"/></g><path d="M276.216,124.881a9.97,9.97,0,0,0-2.93,7.071v27.575a11.741,11.741,0,0,1,10-6.372v-31.2A9.972,9.972,0,0,0,276.216,124.881Z" transform="translate(-273.286 -120.577)" fill="url(#c)"/></g><g transform="translate(99.533 2.207)"><path d="M372.56,123.715a8.353,8.353,0,0,1,2.742,1.469,6.282,6.282,0,0,1,1.752,2.309,7.38,7.38,0,0,1,.609,3.042,8.17,8.17,0,0,1-.362,2.561,7,7,0,0,1-.97,1.931,6.708,6.708,0,0,1-1.351,1.405,8.644,8.644,0,0,1-1.541.945,11.3,11.3,0,0,1,2.228.985,7.6,7.6,0,0,1,1.809,1.448,6.447,6.447,0,0,1,1.219,2.016,7.378,7.378,0,0,1,.457,2.686,8.146,8.146,0,0,1-.686,3.4,6.851,6.851,0,0,1-1.961,2.539,8.99,8.99,0,0,1-3.066,1.573,13.526,13.526,0,0,1-3.961.546H357.633V123.191h11.348A11.454,11.454,0,0,1,372.56,123.715Zm.378,11.222a4.74,4.74,0,0,0,1.712-3.961,4.424,4.424,0,0,0-1.522-3.54,6.532,6.532,0,0,0-4.376-1.306h-8.106v10.157h7.877A6.924,6.924,0,0,0,372.938,134.937Zm1.449,13.3a4.721,4.721,0,0,0,1.751-3.92,4.422,4.422,0,0,0-1.789-3.771,8.826,8.826,0,0,0-5.291-1.328h-8.411v10.409h8.945A7.509,7.509,0,0,0,374.387,148.242Z" transform="translate(-357.633 -122.561)" fill="#333"/><path d="M380.622,126.225v-3.568h3.357v3.568Zm.19,26.441v-21.7h2.938v21.7Z" transform="translate(-353.494 -122.657)" fill="#333"/><path d="M391.8,144.942a7.546,7.546,0,0,0,1.564,2.309,6.47,6.47,0,0,0,4.617,1.909,6.994,6.994,0,0,0,3.53-.84A10.6,10.6,0,0,0,404.2,146.1l1.831,1.805a12.324,12.324,0,0,1-3.395,2.958,9.271,9.271,0,0,1-4.732,1.113,9.066,9.066,0,0,1-3.815-.819,9.476,9.476,0,0,1-3.138-2.308,11.173,11.173,0,0,1-2.137-3.589,12.99,12.99,0,0,1-.792-4.617,13.67,13.67,0,0,1,.706-4.427,11.424,11.424,0,0,1,1.965-3.61,9.281,9.281,0,0,1,2.995-2.413,8.73,8.73,0,0,1,7.689.021,8.686,8.686,0,0,1,2.9,2.456,11.065,11.065,0,0,1,1.794,3.651,16.049,16.049,0,0,1,.61,4.491v.461a4.394,4.394,0,0,1-.038.546H391.04A9.641,9.641,0,0,0,391.8,144.942Zm11.866-5.519a12.111,12.111,0,0,0-.551-2.812,7.694,7.694,0,0,0-1.213-2.351,5.979,5.979,0,0,0-1.9-1.615,5.364,5.364,0,0,0-2.6-.609,5.147,5.147,0,0,0-2.39.566,6.327,6.327,0,0,0-1.933,1.553,8.3,8.3,0,0,0-1.365,2.329,10.7,10.7,0,0,0-.683,2.938Z" transform="translate(-352.161 -121.46)" fill="#333"/><path d="M411.14,151.457H408.2v-21.7h2.938v5.665a11.867,11.867,0,0,1,1.335-2.476A9.421,9.421,0,0,1,414.306,131a7.539,7.539,0,0,1,2.251-1.238,7.358,7.358,0,0,1,2.633-.378v3.483h-.229a7.439,7.439,0,0,0-3.033.629,6.882,6.882,0,0,0-2.5,1.889,9.177,9.177,0,0,0-1.679,3.126,13.851,13.851,0,0,0-.61,4.3Z" transform="translate(-348.529 -121.447)" fill="#333"/><path d="M424.235,151.469H421.3v-21.7h2.938v3.777a9.863,9.863,0,0,1,2.594-3,6.619,6.619,0,0,1,4.16-1.239,7.654,7.654,0,0,1,3.186.63,6.638,6.638,0,0,1,2.366,1.784,8.055,8.055,0,0,1,1.487,2.748,11.4,11.4,0,0,1,.516,3.526v13.472H435.6V138.794a7.448,7.448,0,0,0-1.411-4.785,4.88,4.88,0,0,0-4.044-1.763,5.73,5.73,0,0,0-2.347.483,5.477,5.477,0,0,0-1.889,1.385,6.36,6.36,0,0,0-1.239,2.162,8.329,8.329,0,0,0-.439,2.77Z" transform="translate(-346.171 -121.46)" fill="#333"/><path d="M445.39,132.746a16.83,16.83,0,0,0-2.8,1.154l-.878-2.644a18.543,18.543,0,0,1,3.319-1.322,14.005,14.005,0,0,1,3.854-.483,8.349,8.349,0,0,1,6.219,2.2q2.175,2.2,2.175,6.527v13.262h-2.824V148.17a9.969,9.969,0,0,1-2.766,2.6,7.838,7.838,0,0,1-4.368,1.133,8.834,8.834,0,0,1-2.689-.419,7.081,7.081,0,0,1-2.366-1.28,6.416,6.416,0,0,1-1.679-2.119,6.6,6.6,0,0,1-.629-2.981,7.177,7.177,0,0,1,.61-3.042,5.9,5.9,0,0,1,1.736-2.2,8,8,0,0,1,2.672-1.343,11.926,11.926,0,0,1,3.414-.461,19.189,19.189,0,0,1,3.321.251,22.468,22.468,0,0,1,2.746.671v-.755a5.879,5.879,0,0,0-1.545-4.428,5.988,5.988,0,0,0-4.331-1.49A10.8,10.8,0,0,0,445.39,132.746Zm-.939,8.919a4.457,4.457,0,0,0-1.084,5.163,4.186,4.186,0,0,0,1.084,1.363,4.781,4.781,0,0,0,1.578.861,5.992,5.992,0,0,0,1.883.294,7.377,7.377,0,0,0,2.567-.441,6.666,6.666,0,0,0,2.092-1.217,5.694,5.694,0,0,0,1.407-1.847,5.417,5.417,0,0,0,.513-2.372v-2.1q-1.1-.336-2.529-.63a16.305,16.305,0,0,0-3.252-.294A6.555,6.555,0,0,0,444.451,141.664Z" transform="translate(-342.812 -121.434)" fill="#333"/><path d="M464,146.228a3.594,3.594,0,0,0,.916,2.812,3.532,3.532,0,0,0,2.4.8,5.856,5.856,0,0,0,1.431-.168,6,6,0,0,0,1.43-.588v2.77a6.19,6.19,0,0,1-1.621.693,7.45,7.45,0,0,1-1.927.231,7.122,7.122,0,0,1-2.213-.335,4.459,4.459,0,0,1-1.775-1.07,5,5,0,0,1-1.164-1.91,8.382,8.382,0,0,1-.42-2.812V133.552h-2.747V130.7h2.747v-6.548H464V130.7h6.258v2.853H464Z" transform="translate(-339.506 -122.388)" fill="#333"/></g><g transform="translate(85.8 0)"><line y2="75.13" transform="translate(0.132)" fill="#333"/><rect width="0.264" height="75.13" transform="translate(0 0)"/></g><g transform="translate(99.685 43.922)"><path d="M357.762,159.075h9.387c6.524,0,10.264,3.316,10.264,8.814v.084c0,5.708-3.968,8.94-10.417,8.94H358.6v11.542h-.84Zm9.234,17c5.914,0,9.578-2.854,9.578-8.058v-.084c0-5-3.511-8.017-9.5-8.017H358.6v16.159Z" transform="translate(-357.762 -157.816)" fill="#333"/><path d="M377.357,181.433v-.084c0-4.407,3.74-6.674,8.508-6.674a20.228,20.228,0,0,1,7.173,1.3v-1.763c0-5.079-2.747-7.471-7.211-7.471a13.149,13.149,0,0,0-6.333,1.763l-.306-.755a13.614,13.614,0,0,1,6.677-1.847,7.856,7.856,0,0,1,6.106,2.308,8.764,8.764,0,0,1,1.87,5.959v13.054h-.8v-4.953c-.8,2.434-3.663,5.457-8.546,5.457C380.753,187.729,377.357,185.588,377.357,181.433Zm15.682-1.889v-2.686a17.872,17.872,0,0,0-7.134-1.343c-4.312,0-7.708,1.931-7.708,5.792v.084c0,3.694,2.976,5.5,6.334,5.5C389.644,186.889,393.039,183.28,393.039,179.544Z" transform="translate(-354.234 -156.586)" fill="#333"/><path d="M396.692,178.066V166.188h.8v11.794c0,5.246,2.48,8.855,7.288,8.855,4.236,0,7.594-3.987,7.594-9.024V166.188h.8v20.986h-.8v-5.75a8.075,8.075,0,0,1-7.669,6.254C399.554,187.678,396.692,183.858,396.692,178.066Z" transform="translate(-350.753 -156.535)" fill="#333"/><path d="M416.868,158.008h.8v30.638h-.8Z" transform="translate(-347.121 -158.008)" fill="#333"/><path d="M423.787,159.075h1.184v2.392h-1.184Zm.191,8.394h.8v20.986h-.8Z" transform="translate(-345.875 -157.816)" fill="#333"/><path d="M430.836,166.265h.8v5.75a8.076,8.076,0,0,1,7.669-6.253c5.152,0,8.014,3.819,8.014,9.61V187.25h-.8V175.457c0-5.246-2.48-8.856-7.288-8.856-4.235,0-7.594,3.987-7.594,9.024V187.25h-.8Z" transform="translate(-344.606 -156.612)" fill="#333"/><path d="M449.136,181.433v-.084c0-4.407,3.74-6.674,8.509-6.674a20.227,20.227,0,0,1,7.173,1.3v-1.763c0-5.079-2.747-7.471-7.211-7.471a13.157,13.157,0,0,0-6.334,1.763l-.3-.755a13.61,13.61,0,0,1,6.677-1.847,7.858,7.858,0,0,1,6.106,2.308,8.764,8.764,0,0,1,1.869,5.959v13.054h-.8v-4.953c-.8,2.434-3.663,5.457-8.547,5.457C452.532,187.729,449.136,185.588,449.136,181.433Zm15.683-1.889v-2.686a17.876,17.876,0,0,0-7.134-1.343c-4.312,0-7.708,1.931-7.708,5.792v.084c0,3.694,2.976,5.5,6.334,5.5C461.423,186.889,464.819,183.28,464.819,179.544Z" transform="translate(-341.311 -156.586)" fill="#333"/></g></svg>