<svg xmlns="http://www.w3.org/2000/svg" width="856.011" height="1009.464" viewBox="0 0 856.011 1009.464"><g transform="translate(-1072.434 -62.901)"><path d="M666.526,1289.418c-44.373-5.695-173.815-13.867-293.894,60.028-148.063,91.116-110.7,128.047-273.347,195.959s-259.11,136.673-279.041,216.4,17.084,207.857,93.963,267.652,231.736,79.928,458.425,116.742c133.746,21.72,224.959,111.41,293.894,138.025C664.9,2418.748,677.2,1290.787,666.526,1289.418Z" transform="translate(1257.518 -1223)" fill="rgba(12,191,174,0.18)"/><g transform="translate(1072.435 251.926)"><path d="M199.118,399.042c-13.1,10.718,8.336,104.8,8.336,104.8s4.763,143.5,14.886,150.048,32.749-.6,41.68-1.786,1.191-89.91-11.909-122.658-2.977-80.383-2.977-80.383l70.856,13.695s-42.871,36.321-41.085,44.062,47.634,33.939,55.97,35.13,24.412-47.634,38.7-80.978-97.65-54.779-97.65-54.779l-15.481-29.176S212.217,388.324,199.118,399.042Z" transform="translate(-135.17 -185.333)" fill="#2f2e41"/><path d="M248.985,753.383s-4.321,15.123,0,15.123,12.242,4.321,24.484,2.88,8.642-16.563,0-18.723-6.481-19.443-6.481-19.443c-2.881-5.761-16.563,1.44-16.563,1.44Z" transform="translate(-149.474 -282.361)" fill="#2f2e41"/><path d="M332.52,588.866s-7.413,13.871-3.189,14.783,11.056,6.805,23.326,7.979,11.94-14.368,3.949-18.3-2.235-20.373-2.235-20.373c-1.6-6.239-16.494-2.085-16.494-2.085Z" transform="translate(-171.668 -238.1)" fill="#2f2e41"/><path d="M210.219,229.575c1.191,2.382-4.168,32.153-4.168,32.153l4.763,8.336s27.39-10.718,23.222-12.5-3.573-23.817-3.573-23.817S209.028,227.193,210.219,229.575Z" transform="translate(-138.232 -144.777)" fill="#ffb9b9"/><circle cx="36.508" cy="36.508" r="36.508" transform="translate(45.788 20.959)" fill="#2f2e41"/><circle cx="15.107" cy="15.107" r="15.107" transform="translate(64.671 8.183)" fill="#2f2e41"/><path d="M231.631,143.085a15.286,15.286,0,0,0,1.574.082,15.107,15.107,0,0,0,0-30.214,15.284,15.284,0,0,0-1.574.082,15.107,15.107,0,0,1,0,30.05Z" transform="translate(-145.244 -112.953)" fill="#2f2e41"/><circle cx="25.008" cy="25.008" r="25.008" transform="translate(58.292 50.263)" fill="#ffb9b9"/><path d="M169.881,266.8c-7.741,1.786-20.84,20.84-20.84,20.84l20.84,20.84s14.886,55.97,16.672,58.352c11.7,15.6,64.306-19.054,64.306-19.054s-2.084-16.97-.893-25.306c1.145-8.017-4.466-24.115-4.466-24.115s19.649-8.336,15.481-16.672-29.771-27.39-40.489-20.84-32.153,0-32.153,0A168.209,168.209,0,0,1,169.881,266.8Z" transform="translate(-122.605 -153.122)" fill="#f57f17"/><path d="M387.331,433.491s33.939,29.176,42.275,23.222-32.153-26.794-32.153-26.794Z" transform="translate(-187.923 -199.836)" fill="#ffb9b9"/><path d="M176.786,414.808c4.763,5.359,27.39-8.336,24.489-14.418s-20.916,6.082-20.916,6.082S172.023,409.449,176.786,414.808Z" transform="translate(-129.807 -191.275)" fill="#ffb9b9"/><path d="M159.9,304.127,134.891,350.57s28.58,23.817,32.153,24.413-7.145,16.076-7.145,16.076-32.153-22.626-44.657-33.939,23.817-61.329,23.817-61.329l10.718-6.55Z" transform="translate(-112.622 -161.275)" fill="#f57f17"/><path d="M277.825,301.442,307,346.694s44.657,50.016,50.611,52.4,13.1-8.931,13.1-8.931l-53.588-64.9-20.244-36.321-7.741-2.977Z" transform="translate(-157.906 -160.376)" fill="#f57f17"/><ellipse cx="25.178" cy="15.107" rx="25.178" ry="15.107" transform="translate(57.118 30.452)" fill="#2f2e41"/><path d="M322.124,624.742a3.116,3.116,0,0,0-3.113,3.112V734.012a3.116,3.116,0,0,0,3.113,3.112H684.1a3.116,3.116,0,0,0,3.113-3.112V627.855a3.116,3.116,0,0,0-3.112-3.113Z" transform="translate(-169.196 -253.239)" fill="#e6e6e6"/><path d="M329.757,732.27h352.6V635.487h-352.6Z" transform="translate(-172.141 -256.184)" fill="#fff"/><path d="M752.249,741.157a5.156,5.156,0,0,0,0,10.311h20.623a5.156,5.156,0,0,0,0-10.312Z" transform="translate(-286.537 -285.149)" fill="#6c63ff"/><rect width="238.067" height="1.357" transform="translate(253.424 446.007)" fill="#e6e6e6"/><circle cx="30.03" cy="30.03" r="30.03" transform="translate(173.631 397.665)" fill="#6c63ff"/><path d="M349.356,585.147l-.752-1.129,24.738-16.493,16.964,8.143,24.4-15.589,48.539,20.705L501.9,561.8l37.534,15.217L586.6,535.241l.9,1.016L539.7,578.588l-37.751-15.306-38.667,18.995-48.452-20.668L390.4,577.219l-16.949-8.135Z" transform="translate(-95.556 -146.715)" fill="#3f3d56"/><path d="M466.153,742.134a4.409,4.409,0,1,0,0,8.817h46.121a4.409,4.409,0,1,0,0-8.817Z" transform="translate(-208.32 -285.417)" fill="#e6e6e6"/><path d="M398.532,683.645h4.692l-9.763,9.662a9.116,9.116,0,0,1-12.8,0l-9.762-9.662h4.692l7.417,7.34a5.773,5.773,0,0,0,8.106,0Zm-23,26.868h-4.692l9.823-9.722a9.116,9.116,0,0,1,12.8,0l9.823,9.722h-4.692l-7.478-7.4a5.773,5.773,0,0,0-8.106,0Z" transform="translate(-183.403 -269.385)" fill="#fff"/><path d="M387.059,156.307a3.116,3.116,0,0,0-3.112,3.112V265.577a3.116,3.116,0,0,0,3.112,3.112H749.038a3.116,3.116,0,0,0,3.112-3.112V159.42a3.116,3.116,0,0,0-3.112-3.112Z" transform="translate(-186.995 -124.836)" fill="#e6e6e6"/><path d="M394.692,263.835H747.3V167.052h-352.6Z" transform="translate(-189.94 -127.782)" fill="#fff"/><path d="M817.185,272.722a5.156,5.156,0,0,0,0,10.312h20.623a5.156,5.156,0,0,0,0-10.312Z" transform="translate(-304.337 -156.747)" fill="#6c63ff"/><rect width="238.067" height="1.357" transform="translate(300.56 105.975)" fill="#e6e6e6"/><circle cx="30.03" cy="30.03" r="30.03" transform="translate(220.767 57.632)" fill="#6c63ff"/><path d="M414.291,116.711l-.752-1.129L438.277,99.09l16.964,8.143,24.4-15.589.33.14,48.209,20.565,38.654-18.988,37.534,15.217,47.163-41.774.9,1.016-47.793,42.331-37.751-15.3-38.667,18.994L479.769,93.173l-24.433,15.61-16.949-8.136Z" transform="translate(-113.355 -18.312)" fill="#3f3d56"/><path d="M531.088,273.7a4.409,4.409,0,0,0,0,8.817H577.21a4.409,4.409,0,0,0,0-8.817Z" transform="translate(-226.12 -157.015)" fill="#e6e6e6"/><path d="M464.593,223.459c.561-3.758-2.3-5.778-6.212-7.126l1.269-5.09-3.1-.772-1.236,4.956c-.814-.2-1.65-.395-2.482-.584l1.244-4.989-3.1-.772-1.27,5.089c-.674-.154-1.336-.305-1.979-.465l0-.016-4.273-1.067-.824,3.31s2.3.527,2.251.56a1.648,1.648,0,0,1,1.444,1.8l-1.446,5.8a2.566,2.566,0,0,1,.322.1l-.327-.081-2.027,8.124a1.128,1.128,0,0,1-1.42.736c.031.045-2.252-.562-2.252-.562l-1.538,3.548,4.033,1.005c.75.188,1.485.385,2.208.57l-1.282,5.15,3.1.772,1.271-5.094c.845.229,1.665.441,2.469.641l-1.266,5.07,3.1.772,1.282-5.139c5.284,1,9.258.6,10.928-4.181,1.348-3.848-.066-6.068-2.846-7.516a4.946,4.946,0,0,0,3.956-4.551Zm-7.081,9.928c-.958,3.848-7.436,1.769-9.538,1.246l1.7-6.821c2.1.524,8.835,1.562,7.837,5.575Zm.958-9.983c-.874,3.5-6.266,1.722-8.016,1.286L452,218.5c1.75.436,7.385,1.25,6.474,4.9Z" transform="translate(-201.714 -139.302)" fill="#fff"/><path d="M583.246,390.524a3.116,3.116,0,0,0-3.113,3.113V499.794a3.116,3.116,0,0,0,3.113,3.112H945.225a3.116,3.116,0,0,0,3.112-3.112V393.637a3.116,3.116,0,0,0-3.112-3.113Z" transform="translate(-240.772 -189.037)" fill="#e6e6e6"/><path d="M590.878,498.053h352.6V401.27h-352.6Z" transform="translate(-243.717 -191.983)" fill="#fff"/><path d="M1013.373,506.94a5.156,5.156,0,0,0,0,10.312H1034a5.156,5.156,0,1,0,0-10.311h-20.623Z" transform="translate(-358.114 -220.948)" fill="#6c63ff"/><rect width="238.067" height="1.357" transform="translate(442.97 275.991)" fill="#e6e6e6"/><circle cx="30.03" cy="30.03" r="30.03" transform="translate(363.177 227.649)" fill="#6c63ff"/><path d="M610.478,350.929l-.753-1.129,24.738-16.492,16.965,8.143,24.4-15.589.33.14,48.209,20.565,38.654-18.988L800.556,342.8l47.163-41.773.9,1.016-47.793,42.33-37.751-15.3-38.667,18.994-48.451-20.668L651.522,343l-16.948-8.135Z" transform="translate(-167.132 -82.513)" fill="#3f3d56"/><path d="M727.274,507.917a4.409,4.409,0,0,0,0,8.817H773.4a4.409,4.409,0,0,0,0-8.817Z" transform="translate(-279.896 -221.216)" fill="#e6e6e6"/><path d="M537.1,375.782l12.156-17.12L537.1,365.84h0l-12.149-7.178,12.148,17.12h0Z" transform="translate(-143.893 -98.313)" fill="#fff"/><path d="M537.1,355.057h0l12.149-7.181L537.1,327.717h0l-12.148,20.159Z" transform="translate(-143.893 -89.83)" fill="#fff"/></g></g></svg>